<svg id="visual" viewBox="0 0 900 600" width="900" height="600" xmlns="http://www.w3.org/2000/svg" xmlns:xlink="http://www.w3.org/1999/xlink" version="1.1"><rect x="0" y="0" width="900" height="600" fill="#001220"></rect><path d="M122 0L126 14.3C130 28.7 138 57.3 133.7 85.8C129.3 114.3 112.7 142.7 108.7 171.2C104.7 199.7 113.3 228.3 116.2 257C119 285.7 116 314.3 119.2 343C122.3 371.7 131.7 400.3 131.5 428.8C131.3 457.3 121.7 485.7 122.5 514.2C123.3 542.7 134.7 571.3 140.3 585.7L146 600L0 600L0 585.7C0 571.3 0 542.7 0 514.2C0 485.7 0 457.3 0 428.8C0 400.3 0 371.7 0 343C0 314.3 0 285.7 0 257C0 228.3 0 199.7 0 171.2C0 142.7 0 114.3 0 85.8C0 57.3 0 28.7 0 14.3L0 0Z" fill="#1d8436"></path><path d="M107 0L110.3 14.3C113.7 28.7 120.3 57.3 122 85.8C123.7 114.3 120.3 142.7 116.8 171.2C113.3 199.7 109.7 228.3 109.2 257C108.7 285.7 111.3 314.3 112.5 343C113.7 371.7 113.3 400.3 113.7 428.8C114 457.3 115 485.7 109.8 514.2C104.7 542.7 93.3 571.3 87.7 585.7L82 600L0 600L0 585.7C0 571.3 0 542.7 0 514.2C0 485.7 0 457.3 0 428.8C0 400.3 0 371.7 0 343C0 314.3 0 285.7 0 257C0 228.3 0 199.7 0 171.2C0 142.7 0 114.3 0 85.8C0 57.3 0 28.7 0 14.3L0 0Z" fill="#28ad3b"></path><path d="M69 0L68.3 14.3C67.7 28.7 66.3 57.3 70.5 85.8C74.7 114.3 84.3 142.7 90.5 171.2C96.7 199.7 99.3 228.3 95.2 257C91 285.7 80 314.3 75 343C70 371.7 71 400.3 72.7 428.8C74.3 457.3 76.7 485.7 79.5 514.2C82.3 542.7 85.7 571.3 87.3 585.7L89 600L0 600L0 585.7C0 571.3 0 542.7 0 514.2C0 485.7 0 457.3 0 428.8C0 400.3 0 371.7 0 343C0 314.3 0 285.7 0 257C0 228.3 0 199.7 0 171.2C0 142.7 0 114.3 0 85.8C0 57.3 0 28.7 0 14.3L0 0Z" fill="#3cd73c"></path><path d="M60 0L61.8 14.3C63.7 28.7 67.3 57.3 67.5 85.8C67.7 114.3 64.3 142.7 63.5 171.2C62.7 199.7 64.3 228.3 63.5 257C62.7 285.7 59.3 314.3 58 343C56.7 371.7 57.3 400.3 60.3 428.8C63.3 457.3 68.7 485.7 71 514.2C73.3 542.7 72.7 571.3 72.3 585.7L72 600L0 600L0 585.7C0 571.3 0 542.7 0 514.2C0 485.7 0 457.3 0 428.8C0 400.3 0 371.7 0 343C0 314.3 0 285.7 0 257C0 228.3 0 199.7 0 171.2C0 142.7 0 114.3 0 85.8C0 57.3 0 28.7 0 14.3L0 0Z" fill="#3cd73c"></path><path d="M50 0L51.3 14.3C52.7 28.7 55.3 57.3 52.5 85.8C49.7 114.3 41.3 142.7 41.5 171.2C41.7 199.7 50.3 228.3 53.2 257C56 285.7 53 314.3 50 343C47 371.7 44 400.3 43.7 428.8C43.3 457.3 45.7 485.7 47.7 514.2C49.7 542.7 51.3 571.3 52.2 585.7L53 600L0 600L0 585.7C0 571.3 0 542.7 0 514.2C0 485.7 0 457.3 0 428.8C0 400.3 0 371.7 0 343C0 314.3 0 285.7 0 257C0 228.3 0 199.7 0 171.2C0 142.7 0 114.3 0 85.8C0 57.3 0 28.7 0 14.3L0 0Z" fill="#28ad3b"></path><path d="M15 0L16.7 14.3C18.3 28.7 21.7 57.3 21.8 85.8C22 114.3 19 142.7 20 171.2C21 199.7 26 228.3 29.3 257C32.7 285.7 34.3 314.3 35.7 343C37 371.7 38 400.3 34.8 428.8C31.7 457.3 24.3 485.7 24 514.2C23.7 542.7 30.3 571.3 33.7 585.7L37 600L0 600L0 585.7C0 571.3 0 542.7 0 514.2C0 485.7 0 457.3 0 428.8C0 400.3 0 371.7 0 343C0 314.3 0 285.7 0 257C0 228.3 0 199.7 0 171.2C0 142.7 0 114.3 0 85.8C0 57.3 0 28.7 0 14.3L0 0Z" fill="#1d8436"></path></svg>