<svg id="visual" viewBox="0 0 900 600" width="900" height="600" xmlns="http://www.w3.org/2000/svg" xmlns:xlink="http://www.w3.org/1999/xlink" version="1.1"><path d="M56 0L57.7 12.5C59.3 25 62.7 50 63.3 75C64 100 62 125 61.5 150C61 175 62 200 59.7 225C57.3 250 51.7 275 51 300C50.3 325 54.7 350 57 375C59.3 400 59.7 425 62.7 450C65.7 475 71.3 500 71 525C70.7 550 64.3 575 61.2 587.5L58 600L0 600L0 587.5C0 575 0 550 0 525C0 500 0 475 0 450C0 425 0 400 0 375C0 350 0 325 0 300C0 275 0 250 0 225C0 200 0 175 0 150C0 125 0 100 0 75C0 50 0 25 0 12.5L0 0Z" fill="#1d8436"></path><path d="M50 0L48.7 12.5C47.3 25 44.7 50 43 75C41.3 100 40.7 125 41.7 150C42.7 175 45.3 200 45.7 225C46 250 44 275 43.2 300C42.3 325 42.7 350 46.7 375C50.7 400 58.3 425 62.2 450C66 475 66 500 64 525C62 550 58 575 56 587.5L54 600L0 600L0 587.5C0 575 0 550 0 525C0 500 0 475 0 450C0 425 0 400 0 375C0 350 0 325 0 300C0 275 0 250 0 225C0 200 0 175 0 150C0 125 0 100 0 75C0 50 0 25 0 12.5L0 0Z" fill="#28ad3b"></path><path d="M43 0L44.7 12.5C46.3 25 49.7 50 47.5 75C45.3 100 37.7 125 34.2 150C30.7 175 31.3 200 35.7 225C40 250 48 275 50.8 300C53.7 325 51.3 350 50.8 375C50.3 400 51.7 425 52.2 450C52.7 475 52.3 500 51.8 525C51.3 550 50.7 575 50.3 587.5L50 600L0 600L0 587.5C0 575 0 550 0 525C0 500 0 475 0 450C0 425 0 400 0 375C0 350 0 325 0 300C0 275 0 250 0 225C0 200 0 175 0 150C0 125 0 100 0 75C0 50 0 25 0 12.5L0 0Z" fill="#3cd73c"></path><path d="M39 0L37 12.5C35 25 31 50 28.3 75C25.7 100 24.3 125 26.5 150C28.7 175 34.3 200 35.7 225C37 250 34 275 33.7 300C33.3 325 35.7 350 37.2 375C38.7 400 39.3 425 38.2 450C37 475 34 500 33 525C32 550 33 575 33.5 587.5L34 600L0 600L0 587.5C0 575 0 550 0 525C0 500 0 475 0 450C0 425 0 400 0 375C0 350 0 325 0 300C0 275 0 250 0 225C0 200 0 175 0 150C0 125 0 100 0 75C0 50 0 25 0 12.5L0 0Z" fill="#3cd73c"></path><path d="M25 0L24.7 12.5C24.3 25 23.7 50 22 75C20.3 100 17.7 125 16.7 150C15.7 175 16.3 200 16.2 225C16 250 15 275 16 300C17 325 20 350 22.5 375C25 400 27 425 26.7 450C26.3 475 23.7 500 21.7 525C19.7 550 18.3 575 17.7 587.5L17 600L0 600L0 587.5C0 575 0 550 0 525C0 500 0 475 0 450C0 425 0 400 0 375C0 350 0 325 0 300C0 275 0 250 0 225C0 200 0 175 0 150C0 125 0 100 0 75C0 50 0 25 0 12.5L0 0Z" fill="#28ad3b"></path><path d="M8 0L9.5 12.5C11 25 14 50 16 75C18 100 19 125 19.7 150C20.3 175 20.7 200 19 225C17.3 250 13.7 275 11.3 300C9 325 8 350 8.3 375C8.7 400 10.3 425 12.5 450C14.7 475 17.3 500 16.7 525C16 550 12 575 10 587.5L8 600L0 600L0 587.5C0 575 0 550 0 525C0 500 0 475 0 450C0 425 0 400 0 375C0 350 0 325 0 300C0 275 0 250 0 225C0 200 0 175 0 150C0 125 0 100 0 75C0 50 0 25 0 12.5L0 0Z" fill="#1d8436"></path></svg>