<svg id="visual" viewBox="0 0 900 600" width="900" height="600" xmlns="http://www.w3.org/2000/svg" xmlns:xlink="http://www.w3.org/1999/xlink" version="1.1"><path d="M147 0L140.7 12.5C134.3 25 121.7 50 123.3 75C125 100 141 125 142.3 150C143.7 175 130.3 200 123.5 225C116.7 250 116.3 275 120.5 300C124.7 325 133.3 350 135 375C136.7 400 131.3 425 134 450C136.7 475 147.3 500 153.5 525C159.7 550 161.3 575 162.2 587.5L163 600L0 600L0 587.5C0 575 0 550 0 525C0 500 0 475 0 450C0 425 0 400 0 375C0 350 0 325 0 300C0 275 0 250 0 225C0 200 0 175 0 150C0 125 0 100 0 75C0 50 0 25 0 12.5L0 0Z" fill="#569aff" stroke-linecap="round" stroke-linejoin="miter"></path></svg>